<svg xmlns="http://www.w3.org/2000/svg" width="28" height="29" viewBox="0 0 28 29"><path d="M27.44 21a.5.5 0 0 0-.4-.34l-3.89-.55-1.73-3.39c-.17-.34-.72-.34-.89 0l-1.73 3.39-3.89.55a.49.49 0 0 0-.4.34.5.5 0 0 0 .13.52l2.8 2.64-.66 3.72c-.03.18.04.37.19.49a.5.5 0 0 0 .53.04l3.47-1.76 3.48 1.76c.07.04.15.06.23.06.1 0 .21-.04.3-.1.15-.12.22-.3.19-.49l-.66-3.72 2.8-2.64a.5.5 0 0 0 .13-.52zm-3.81 2.61a.52.52 0 0 0-.15.46l.53 2.99-2.81-1.42a.46.46 0 0 0-.45 0l-2.81 1.42.53-2.99a.52.52 0 0 0-.15-.46l-2.24-2.1 3.11-.44a.5.5 0 0 0 .38-.27l1.4-2.75 1.41 2.75c.07.15.21.25.38.27l3.1.44zm-1.16-17.6h-8.99a.5.5 0 0 0-.5.5c0 .28.23.5.5.5h8.99a.5.5 0 0 0 .5-.5.5.5 0 0 0-.5-.5zm0 7.01h-8.99a.5.5 0 0 0-.5.5c0 .28.23.5.5.5h8.99a.5.5 0 0 0 .5-.5.5.5 0 0 0-.5-.5zM10.28 3.63a.5.5 0 0 0-.71.05L6.45 7.33 4.54 5.9a.48.48 0 0 0-.69.1.49.49 0 0 0 .1.7l2.28 1.71c.09.07.19.11.3.11a.5.5 0 0 0 .38-.18l3.42-4.01a.5.5 0 0 0-.05-.7zm0 7.01a.5.5 0 0 0-.71.05l-3.12 3.65-1.91-1.43a.48.48 0 0 0-.69.1.49.49 0 0 0 .1.7l2.28 1.72a.5.5 0 0 0 .68-.08l3.42-4.01a.5.5 0 0 0-.05-.7zm-.71 7.57l-3.12 3.65-1.91-1.44a.5.5 0 0 0-.69.1.49.49 0 0 0 .1.7l2.28 1.72a.5.5 0 0 0 .68-.08l3.42-4a.5.5 0 0 0-.05-.71.5.5 0 0 0-.71.06zm3.91 7.84h-7.4A5.1 5.1 0 0 1 1 20.95V6.1A5.1 5.1 0 0 1 6.08 1h14.81a5.1 5.1 0 0 1 5.08 5.1v11.97c0 .28.22.5.5.5a.5.5 0 0 0 .5-.5V6.1A6.1 6.1 0 0 0 20.89 0H6.08A6.1 6.1 0 0 0 0 6.1v14.85a6.1 6.1 0 0 0 6.08 6.1h7.4a.5.5 0 0 0 .5-.5.5.5 0 0 0-.5-.5z"/></svg>