<svg xmlns="http://www.w3.org/2000/svg" width="31" height="30" viewBox="0 0 31 30"><path d="M15.5 0C7.23 0 .5 6.73.5 15s6.73 15 15 15 15-6.73 15-15-6.73-15-15-15zm0 29c-7.72 0-14-6.28-14-14s6.28-14 14-14 14 6.28 14 14-6.28 14-14 14zm.5-15.99V7.94a.5.5 0 0 0-.5-.5.5.5 0 0 0-.5.5v5.07a2 2 0 0 0-1.43 1.43H10a.5.5 0 0 0-.5.5c0 .28.22.5.5.5h3.57A2 2 0 1 0 16 13.01zm-.5 2.93a1 1 0 0 1-1-1 1 1 0 0 1 1-1 1 1 0 0 1 1 1 1 1 0 0 1-1 1zm0-11a.5.5 0 0 0 .5-.5v-.5a.5.5 0 0 0-.5-.5.5.5 0 0 0-.5.5v.5c0 .28.22.5.5.5zm0 20a.5.5 0 0 0-.5.5v.5c0 .28.22.5.5.5a.5.5 0 0 0 .5-.5v-.5a.5.5 0 0 0-.5-.5zm11-10.5H26a.5.5 0 0 0-.5.5c0 .28.22.5.5.5h.5a.5.5 0 0 0 .5-.5.5.5 0 0 0-.5-.5zm-21.5 0h-.5a.5.5 0 0 0-.5.5c0 .28.22.5.5.5H5a.5.5 0 0 0 .5-.5.5.5 0 0 0-.5-.5zm17.92-7.63l-.35.35a.51.51 0 0 0 0 .71c.1.1.23.14.35.14a.5.5 0 0 0 .36-.14l.35-.36c.2-.19.2-.51 0-.7a.5.5 0 0 0-.71 0zm-15.2 15.2l-.35.35a.5.5 0 0 0 0 .71c.1.1.22.15.35.15a.5.5 0 0 0 .36-.15l.35-.35a.51.51 0 0 0 0-.71.51.51 0 0 0-.71 0zm15.56 0a.51.51 0 0 0-.71 0 .51.51 0 0 0 0 .71l.35.35c.1.1.23.15.36.15.13 0 .25-.05.35-.15a.5.5 0 0 0 0-.71zM8.08 6.81a.5.5 0 0 0-.71 0c-.2.19-.2.51 0 .7l.35.36c.1.1.23.14.36.14a.5.5 0 0 0 .35-.14.51.51 0 0 0 0-.71z"/></svg>