<svg xmlns="http://www.w3.org/2000/svg" width="14" height="14" viewBox="0 0 14 14"><path fill="#c20000" d="M9.2 6.97a.3.3 0 0 1 0-.44l4.61-4.62a.66.66 0 0 0 .19-.43.66.66 0 0 0-.19-.43l-.86-.86a.64.64 0 0 0-.43-.19c-.18 0-.3.06-.43.19L7.47 4.81a.3.3 0 0 1-.44 0L2.41.19A.64.64 0 0 0 1.98 0c-.12 0-.3.06-.43.19l-.86.86a.66.66 0 0 0-.19.43c0 .12.06.31.19.43L5.3 6.53a.3.3 0 0 1 0 .44L.69 11.59a.66.66 0 0 0-.19.43c0 .12.06.31.19.43l.86.86c.12.13.3.19.43.19.12 0 .3-.06.43-.19l4.62-4.62a.3.3 0 0 1 .44 0l4.62 4.62c.12.13.3.19.43.19.12 0 .3-.06.43-.19l.86-.86a.66.66 0 0 0 .19-.43.66.66 0 0 0-.19-.43z"/></svg>