<svg xmlns="http://www.w3.org/2000/svg" width="38" height="31" viewBox="0 0 38 31"><defs><clipPath id="a"><path fill="#fff" d="M1337.5 7119.04v-29.08h37v29.08zm24.16-11.22c-.72.54-1.31.97-1.75 1.28-.45.3-1.05.62-1.8.94-.75.32-1.44.48-2.09.48h-.04c-.64 0-1.34-.16-2.09-.48a11.1 11.1 0 0 1-1.79-.94c-.45-.31-1.04-.74-1.76-1.28a361.8 361.8 0 0 0-9.44-6.76c-.72-.5-1.36-1.06-1.92-1.7v15.54c0 .86.3 1.6.89 2.21.6.62 1.31.92 2.15.92h27.96c.84 0 1.55-.3 2.15-.92.6-.61.89-1.35.89-2.21v-15.54c-.54.62-1.17 1.19-1.9 1.7-4.15 2.9-7.3 5.15-9.46 6.76zm10.46-16.43a2.9 2.9 0 0 0-2.14-.92h-27.96c-.98 0-1.73.34-2.25 1.02a4.01 4.01 0 0 0-.79 2.54c0 .83.35 1.72 1.04 2.68.7.95 1.44 1.71 2.23 2.26l3.89 2.78c2.17 1.55 3.83 2.74 4.98 3.58l.81.6 1.02.74c.27.19.6.4.99.64.39.23.75.41 1.09.52.34.12.66.18.95.18h.04c.29 0 .61-.06.95-.18.34-.11.71-.29 1.09-.52.39-.24.72-.45.99-.64l1.03-.74.8-.6 8.89-6.36a9.16 9.16 0 0 0 2.32-2.41c.62-.94.93-1.92.93-2.96 0-.86-.3-1.6-.9-2.21z"/></clipPath></defs><path fill="none" stroke="#fff" stroke-miterlimit="50" d="M1361.66 7107.82c-.72.54-1.31.97-1.75 1.28-.45.3-1.05.62-1.8.94-.75.32-1.44.48-2.09.48h-.04c-.64 0-1.34-.16-2.09-.48a11.1 11.1 0 0 1-1.79-.94c-.45-.31-1.04-.74-1.76-1.28a361.8 361.8 0 0 0-9.44-6.76c-.72-.5-1.36-1.06-1.92-1.7v15.54c0 .86.3 1.6.89 2.21.6.62 1.31.92 2.15.92h27.96c.84 0 1.55-.3 2.15-.92.6-.61.89-1.35.89-2.21v-15.54c-.54.62-1.17 1.19-1.9 1.7-4.15 2.9-7.3 5.15-9.46 6.76zm11.36-14.22c0 1.04-.31 2.02-.93 2.96a9.16 9.16 0 0 1-2.32 2.41l-8.89 6.36-.8.6-1.03.74c-.27.19-.6.4-.99.64-.38.23-.75.41-1.09.52-.34.12-.66.18-.95.18h-.04c-.29 0-.61-.06-.95-.18a5.6 5.6 0 0 1-1.09-.52c-.39-.24-.72-.45-.99-.64l-1.02-.74-.81-.6c-1.15-.84-2.81-2.03-4.98-3.58l-3.89-2.78a9.78 9.78 0 0 1-2.23-2.26 4.7 4.7 0 0 1-1.04-2.68c0-1.01.26-1.86.79-2.54a2.66 2.66 0 0 1 2.25-1.02h27.96c.83 0 1.54.31 2.14.92.6.61.9 1.35.9 2.21z" clip-path="url(&quot;#a&quot;)" transform="translate(-1337 -7089)"/></svg>