<svg xmlns="http://www.w3.org/2000/svg" width="23" height="32" viewBox="0 0 23 32"><path fill="#fff" d="M11.6 6.9a4.03 4.03 0 0 0 0 8.06 4.03 4.03 0 0 0 0-8.06zm0 6.91a2.88 2.88 0 0 1 0-5.76 2.88 2.88 0 0 1 0 5.76zm7.68-10.58A10.93 10.93 0 0 0 11.5 0C8.56 0 5.8 1.15 3.72 3.23-.12 7.09-.6 14.34 2.7 18.74L11.5 31.5l8.8-12.75c3.3-4.41 2.82-11.66-1.02-15.52zm.09 14.85l-7.87 11.4-7.88-11.42C.64 14.08 1.06 7.53 4.53 4.05a9.76 9.76 0 0 1 6.97-2.9c2.63 0 5.1 1.03 6.97 2.9 3.47 3.48 3.9 10.03.9 14.03z"/></svg>