<svg xmlns="http://www.w3.org/2000/svg" width="35" height="35" viewBox="0 0 35 35"><defs><clipPath id="a"><path fill="#fff" d="M538.5 7119.5v-34h34v34zm30.75-9.77l-1.21-.67-1.42-.79-1.2-.69-.56-.4a8.13 8.13 0 0 0-.8-.48c-.21-.1-.42-.15-.63-.15-.3 0-.68.21-1.12.63-.45.43-.86.89-1.24 1.39-.37.5-.76.97-1.18 1.39-.42.43-.76.64-1.03.64-.14 0-.3-.04-.5-.11l-.46-.19c-.11-.05-.29-.16-.54-.31l-.43-.26a23.76 23.76 0 0 1-5.26-3.9 23.36 23.36 0 0 1-3.9-5.27l-.25-.42a6.38 6.38 0 0 1-.5-1 1.5 1.5 0 0 1-.12-.5c0-.27.21-.61.64-1.03.42-.42.89-.81 1.39-1.19.5-.37.96-.78 1.38-1.23.43-.45.64-.82.64-1.12 0-.21-.05-.42-.15-.64-.1-.21-.27-.48-.49-.8l-.39-.56a51.68 51.68 0 0 1-1.48-2.62c-.28-.52-.5-.92-.67-1.2-.52-1.05-.92-1.62-1.18-1.71-.1-.04-.27-.07-.47-.07-.4 0-.93.08-1.58.23-.65.15-1.16.31-1.54.47-.74.31-1.53 1.22-2.37 2.73a8.73 8.73 0 0 0-1.06 5.34 16.97 16.97 0 0 0 1.06 3.6c.22.6.36.96.4 1.1a20.34 20.34 0 0 0 1.86 3.92 32.94 32.94 0 0 0 4.83 5.92 33.16 33.16 0 0 0 5.92 4.83c1.15.72 2.46 1.34 3.92 1.86l1.1.4 1.24.46 1.06.33a9.02 9.02 0 0 0 2.46.36c1.38 0 2.77-.39 4.17-1.15 1.5-.83 2.42-1.63 2.73-2.37.17-.37.32-.89.47-1.54.15-.65.23-1.17.23-1.58 0-.2-.02-.36-.07-.47-.09-.26-.66-.66-1.7-1.18z"/></clipPath></defs><path fill="none" stroke="#fff" stroke-miterlimit="50" d="M570.95 7110.91c-.09-.26-.66-.66-1.7-1.18l-1.21-.67-1.42-.79-1.2-.69-.56-.4a8.13 8.13 0 0 0-.8-.48c-.21-.1-.42-.15-.63-.15-.3 0-.68.21-1.12.63-.45.43-.86.89-1.24 1.39-.37.5-.76.97-1.18 1.39-.42.43-.76.64-1.03.64-.14 0-.3-.04-.5-.11l-.46-.19c-.11-.05-.29-.16-.54-.31l-.43-.26a23.76 23.76 0 0 1-5.26-3.9 23.36 23.36 0 0 1-3.9-5.27l-.25-.42a6.38 6.38 0 0 1-.5-1 1.5 1.5 0 0 1-.12-.5c0-.27.21-.61.64-1.03.42-.42.89-.81 1.39-1.19.5-.37.96-.78 1.38-1.23.43-.45.64-.82.64-1.12 0-.21-.05-.42-.15-.64-.1-.21-.27-.48-.49-.8l-.39-.56a51.68 51.68 0 0 1-1.48-2.62c-.28-.52-.5-.92-.67-1.2-.52-1.05-.92-1.62-1.18-1.71-.1-.04-.27-.07-.47-.07-.4 0-.93.08-1.58.23-.65.15-1.16.31-1.54.47-.74.31-1.53 1.22-2.37 2.73a8.73 8.73 0 0 0-1.06 5.34 16.97 16.97 0 0 0 1.06 3.6c.22.6.36.96.4 1.1a20.34 20.34 0 0 0 1.86 3.92 32.94 32.94 0 0 0 4.83 5.92 33.16 33.16 0 0 0 5.92 4.83c1.15.72 2.46 1.34 3.92 1.86l1.1.4 1.24.46 1.06.33a9.02 9.02 0 0 0 2.46.36c1.38 0 2.77-.39 4.17-1.15 1.5-.83 2.42-1.63 2.73-2.37.17-.37.32-.89.47-1.54.15-.65.23-1.17.23-1.58 0-.2-.02-.36-.07-.47z" clip-path="url(&quot;#a&quot;)" transform="translate(-538 -7085)"/></svg>